<mxfile host="Electron" modified="2024-11-25T11:28:01.491Z" agent="Mozilla/5.0 (Windows NT 10.0; Win64; x64) AppleWebKit/537.36 (KHTML, like Gecko) draw.io/24.0.4 Chrome/120.0.6099.109 Electron/28.1.0 Safari/537.36" etag="3nUDyFnSwEmEoQxxJTz0" version="24.0.4" type="device">
  <diagram name="第 1 页" id="oaBwvU0hBXUBrq2sIcGb">
    <mxGraphModel dx="1591" dy="1081" grid="1" gridSize="10" guides="1" tooltips="1" connect="1" arrows="1" fold="1" page="1" pageScale="1" pageWidth="3100" pageHeight="1400" math="0" shadow="0">
      <root>
        <mxCell id="0" />
        <mxCell id="1" parent="0" />
        <mxCell id="kdsYvHtpewpyibcica4u-59" style="rounded=0;orthogonalLoop=1;jettySize=auto;html=1;exitX=0;exitY=0.75;exitDx=0;exitDy=0;entryX=0.5;entryY=0;entryDx=0;entryDy=0;" edge="1" parent="1" source="kdsYvHtpewpyibcica4u-2" target="kdsYvHtpewpyibcica4u-3">
          <mxGeometry relative="1" as="geometry" />
        </mxCell>
        <mxCell id="kdsYvHtpewpyibcica4u-60" style="rounded=0;orthogonalLoop=1;jettySize=auto;html=1;exitX=1;exitY=0.5;exitDx=0;exitDy=0;entryX=0.5;entryY=0;entryDx=0;entryDy=0;" edge="1" parent="1" source="kdsYvHtpewpyibcica4u-2" target="kdsYvHtpewpyibcica4u-35">
          <mxGeometry relative="1" as="geometry" />
        </mxCell>
        <mxCell id="kdsYvHtpewpyibcica4u-2" value="&lt;font face=&quot;Linux Libertine&quot;&gt;SVF::SVFVar&lt;/font&gt;" style="rounded=0;whiteSpace=wrap;html=1;" vertex="1" parent="1">
          <mxGeometry x="830" y="370" width="80" height="20" as="geometry" />
        </mxCell>
        <mxCell id="kdsYvHtpewpyibcica4u-13" style="rounded=0;orthogonalLoop=1;jettySize=auto;html=1;exitX=0.14;exitY=0.964;exitDx=0;exitDy=0;entryX=0.5;entryY=0;entryDx=0;entryDy=0;exitPerimeter=0;" edge="1" parent="1" source="kdsYvHtpewpyibcica4u-3" target="kdsYvHtpewpyibcica4u-5">
          <mxGeometry relative="1" as="geometry" />
        </mxCell>
        <mxCell id="kdsYvHtpewpyibcica4u-14" style="rounded=0;orthogonalLoop=1;jettySize=auto;html=1;exitX=0.25;exitY=1;exitDx=0;exitDy=0;entryX=0.5;entryY=0;entryDx=0;entryDy=0;" edge="1" parent="1" source="kdsYvHtpewpyibcica4u-3" target="kdsYvHtpewpyibcica4u-6">
          <mxGeometry relative="1" as="geometry" />
        </mxCell>
        <mxCell id="kdsYvHtpewpyibcica4u-24" style="rounded=0;orthogonalLoop=1;jettySize=auto;html=1;exitX=0.5;exitY=1;exitDx=0;exitDy=0;entryX=0;entryY=0;entryDx=0;entryDy=0;" edge="1" parent="1" source="kdsYvHtpewpyibcica4u-3" target="kdsYvHtpewpyibcica4u-21">
          <mxGeometry relative="1" as="geometry" />
        </mxCell>
        <mxCell id="kdsYvHtpewpyibcica4u-25" style="rounded=0;orthogonalLoop=1;jettySize=auto;html=1;exitX=0.75;exitY=1;exitDx=0;exitDy=0;entryX=0;entryY=0;entryDx=0;entryDy=0;" edge="1" parent="1" source="kdsYvHtpewpyibcica4u-3" target="kdsYvHtpewpyibcica4u-22">
          <mxGeometry relative="1" as="geometry" />
        </mxCell>
        <mxCell id="kdsYvHtpewpyibcica4u-26" style="rounded=0;orthogonalLoop=1;jettySize=auto;html=1;exitX=1;exitY=1;exitDx=0;exitDy=0;entryX=0;entryY=0;entryDx=0;entryDy=0;" edge="1" parent="1" source="kdsYvHtpewpyibcica4u-3" target="kdsYvHtpewpyibcica4u-23">
          <mxGeometry relative="1" as="geometry" />
        </mxCell>
        <mxCell id="kdsYvHtpewpyibcica4u-28" style="rounded=0;orthogonalLoop=1;jettySize=auto;html=1;exitX=0;exitY=1;exitDx=0;exitDy=0;entryX=1;entryY=0;entryDx=0;entryDy=0;" edge="1" parent="1" source="kdsYvHtpewpyibcica4u-3" target="kdsYvHtpewpyibcica4u-27">
          <mxGeometry relative="1" as="geometry" />
        </mxCell>
        <mxCell id="kdsYvHtpewpyibcica4u-3" value="&lt;font face=&quot;Linux Libertine&quot;&gt;SVF::ValVar&lt;/font&gt;" style="rounded=0;whiteSpace=wrap;html=1;" vertex="1" parent="1">
          <mxGeometry x="410" y="440" width="80" height="20" as="geometry" />
        </mxCell>
        <mxCell id="kdsYvHtpewpyibcica4u-5" value="&lt;font face=&quot;Linux Libertine&quot;&gt;SVF::FunValVar&lt;/font&gt;" style="rounded=0;whiteSpace=wrap;html=1;fillColor=#f8cecc;strokeColor=#b85450;" vertex="1" parent="1">
          <mxGeometry x="280" y="500" width="80" height="20" as="geometry" />
        </mxCell>
        <mxCell id="kdsYvHtpewpyibcica4u-15" style="rounded=0;orthogonalLoop=1;jettySize=auto;html=1;exitX=0.25;exitY=1;exitDx=0;exitDy=0;entryX=0.5;entryY=0;entryDx=0;entryDy=0;" edge="1" parent="1" source="kdsYvHtpewpyibcica4u-6" target="kdsYvHtpewpyibcica4u-7">
          <mxGeometry relative="1" as="geometry" />
        </mxCell>
        <mxCell id="kdsYvHtpewpyibcica4u-16" style="rounded=0;orthogonalLoop=1;jettySize=auto;html=1;exitX=0.75;exitY=1;exitDx=0;exitDy=0;entryX=0.5;entryY=0;entryDx=0;entryDy=0;" edge="1" parent="1" source="kdsYvHtpewpyibcica4u-6" target="kdsYvHtpewpyibcica4u-8">
          <mxGeometry relative="1" as="geometry" />
        </mxCell>
        <mxCell id="kdsYvHtpewpyibcica4u-6" value="&lt;font face=&quot;Linux Libertine&quot;&gt;SVF::ConstantValVar&lt;/font&gt;" style="rounded=0;whiteSpace=wrap;html=1;fillColor=#f8cecc;strokeColor=#b85450;" vertex="1" parent="1">
          <mxGeometry x="395" y="500" width="110" height="20" as="geometry" />
        </mxCell>
        <mxCell id="kdsYvHtpewpyibcica4u-17" style="rounded=0;orthogonalLoop=1;jettySize=auto;html=1;exitX=0;exitY=1;exitDx=0;exitDy=0;entryX=0.5;entryY=0;entryDx=0;entryDy=0;" edge="1" parent="1" source="kdsYvHtpewpyibcica4u-7" target="kdsYvHtpewpyibcica4u-9">
          <mxGeometry relative="1" as="geometry" />
        </mxCell>
        <mxCell id="kdsYvHtpewpyibcica4u-18" style="rounded=0;orthogonalLoop=1;jettySize=auto;html=1;exitX=0.25;exitY=1;exitDx=0;exitDy=0;entryX=0.25;entryY=0;entryDx=0;entryDy=0;" edge="1" parent="1" source="kdsYvHtpewpyibcica4u-7" target="kdsYvHtpewpyibcica4u-10">
          <mxGeometry relative="1" as="geometry" />
        </mxCell>
        <mxCell id="kdsYvHtpewpyibcica4u-19" style="rounded=0;orthogonalLoop=1;jettySize=auto;html=1;exitX=0.5;exitY=1;exitDx=0;exitDy=0;entryX=0;entryY=0;entryDx=0;entryDy=0;" edge="1" parent="1" source="kdsYvHtpewpyibcica4u-7" target="kdsYvHtpewpyibcica4u-11">
          <mxGeometry relative="1" as="geometry" />
        </mxCell>
        <mxCell id="kdsYvHtpewpyibcica4u-20" style="rounded=0;orthogonalLoop=1;jettySize=auto;html=1;exitX=0.932;exitY=1.033;exitDx=0;exitDy=0;entryX=0;entryY=0.25;entryDx=0;entryDy=0;exitPerimeter=0;" edge="1" parent="1" source="kdsYvHtpewpyibcica4u-7" target="kdsYvHtpewpyibcica4u-12">
          <mxGeometry relative="1" as="geometry" />
        </mxCell>
        <mxCell id="kdsYvHtpewpyibcica4u-7" value="&lt;font face=&quot;Linux Libertine&quot;&gt;SVF::ConstantDataValVar&lt;/font&gt;" style="rounded=0;whiteSpace=wrap;html=1;" vertex="1" parent="1">
          <mxGeometry x="310" y="560" width="130" height="20" as="geometry" />
        </mxCell>
        <mxCell id="kdsYvHtpewpyibcica4u-8" value="&lt;font face=&quot;Linux Libertine&quot;&gt;SVF::GlobalValueValVar&lt;/font&gt;" style="rounded=0;whiteSpace=wrap;html=1;" vertex="1" parent="1">
          <mxGeometry x="490" y="560" width="120" height="20" as="geometry" />
        </mxCell>
        <mxCell id="kdsYvHtpewpyibcica4u-9" value="&lt;font face=&quot;Linux Libertine&quot;&gt;SVF::BlackHoleVar&lt;/font&gt;" style="rounded=0;whiteSpace=wrap;html=1;" vertex="1" parent="1">
          <mxGeometry x="170" y="610" width="100" height="20" as="geometry" />
        </mxCell>
        <mxCell id="kdsYvHtpewpyibcica4u-10" value="&lt;font face=&quot;Linux Libertine&quot;&gt;SVF::ConstantFPValVar&lt;/font&gt;" style="rounded=0;whiteSpace=wrap;html=1;" vertex="1" parent="1">
          <mxGeometry x="290" y="610" width="120" height="20" as="geometry" />
        </mxCell>
        <mxCell id="kdsYvHtpewpyibcica4u-11" value="&lt;font face=&quot;Linux Libertine&quot;&gt;SVF::ConstantIntValVar&lt;/font&gt;" style="rounded=0;whiteSpace=wrap;html=1;" vertex="1" parent="1">
          <mxGeometry x="425" y="610" width="120" height="20" as="geometry" />
        </mxCell>
        <mxCell id="kdsYvHtpewpyibcica4u-12" value="&lt;font face=&quot;Linux Libertine&quot;&gt;SVF::ConstantNullPtrValVar&lt;/font&gt;" style="rounded=0;whiteSpace=wrap;html=1;" vertex="1" parent="1">
          <mxGeometry x="575" y="610" width="150" height="20" as="geometry" />
        </mxCell>
        <mxCell id="kdsYvHtpewpyibcica4u-21" value="&lt;font face=&quot;Linux Libertine&quot;&gt;SVF::GepValVar&lt;/font&gt;" style="rounded=0;whiteSpace=wrap;html=1;" vertex="1" parent="1">
          <mxGeometry x="520" y="500" width="90" height="20" as="geometry" />
        </mxCell>
        <mxCell id="kdsYvHtpewpyibcica4u-22" value="&lt;font face=&quot;Linux Libertine&quot;&gt;SVF::RetPN&lt;/font&gt;" style="rounded=0;whiteSpace=wrap;html=1;" vertex="1" parent="1">
          <mxGeometry x="620" y="500" width="70" height="20" as="geometry" />
        </mxCell>
        <mxCell id="kdsYvHtpewpyibcica4u-23" value="&lt;font face=&quot;Linux Libertine&quot;&gt;SVF::VarArgPN&lt;/font&gt;" style="rounded=0;whiteSpace=wrap;html=1;" vertex="1" parent="1">
          <mxGeometry x="700" y="500" width="90" height="20" as="geometry" />
        </mxCell>
        <mxCell id="kdsYvHtpewpyibcica4u-27" value="&lt;font face=&quot;Linux Libertine&quot;&gt;SVF::DummyValVar&lt;/font&gt;" style="rounded=0;whiteSpace=wrap;html=1;" vertex="1" parent="1">
          <mxGeometry x="160" y="500" width="100" height="20" as="geometry" />
        </mxCell>
        <mxCell id="kdsYvHtpewpyibcica4u-31" style="rounded=0;orthogonalLoop=1;jettySize=auto;html=1;exitX=0.5;exitY=1;exitDx=0;exitDy=0;entryX=0.5;entryY=0;entryDx=0;entryDy=0;" edge="1" parent="1" source="kdsYvHtpewpyibcica4u-35" target="kdsYvHtpewpyibcica4u-50">
          <mxGeometry relative="1" as="geometry" />
        </mxCell>
        <mxCell id="kdsYvHtpewpyibcica4u-34" style="rounded=0;orthogonalLoop=1;jettySize=auto;html=1;exitX=0;exitY=1;exitDx=0;exitDy=0;entryX=1;entryY=0;entryDx=0;entryDy=0;" edge="1" parent="1" source="kdsYvHtpewpyibcica4u-35" target="kdsYvHtpewpyibcica4u-53">
          <mxGeometry relative="1" as="geometry" />
        </mxCell>
        <mxCell id="kdsYvHtpewpyibcica4u-35" value="&lt;font face=&quot;Linux Libertine&quot;&gt;SVF::ObjVar&lt;/font&gt;" style="rounded=0;whiteSpace=wrap;html=1;" vertex="1" parent="1">
          <mxGeometry x="1159" y="439" width="80" height="20" as="geometry" />
        </mxCell>
        <mxCell id="kdsYvHtpewpyibcica4u-36" value="&lt;font face=&quot;Linux Libertine&quot;&gt;SVF::FunObjVar&lt;/font&gt;" style="rounded=0;whiteSpace=wrap;html=1;fillColor=#f8cecc;strokeColor=#b85450;" vertex="1" parent="1">
          <mxGeometry x="1055" y="550" width="80" height="20" as="geometry" />
        </mxCell>
        <mxCell id="kdsYvHtpewpyibcica4u-37" style="rounded=0;orthogonalLoop=1;jettySize=auto;html=1;exitX=0.25;exitY=1;exitDx=0;exitDy=0;entryX=0.5;entryY=0;entryDx=0;entryDy=0;" edge="1" parent="1" source="kdsYvHtpewpyibcica4u-39" target="kdsYvHtpewpyibcica4u-44">
          <mxGeometry relative="1" as="geometry" />
        </mxCell>
        <mxCell id="kdsYvHtpewpyibcica4u-38" style="rounded=0;orthogonalLoop=1;jettySize=auto;html=1;exitX=0.75;exitY=1;exitDx=0;exitDy=0;entryX=0.5;entryY=0;entryDx=0;entryDy=0;" edge="1" parent="1" source="kdsYvHtpewpyibcica4u-39" target="kdsYvHtpewpyibcica4u-45">
          <mxGeometry relative="1" as="geometry" />
        </mxCell>
        <mxCell id="kdsYvHtpewpyibcica4u-39" value="&lt;font face=&quot;Linux Libertine&quot;&gt;SVF::ConstantObjVar&lt;/font&gt;" style="rounded=0;whiteSpace=wrap;html=1;fillColor=#f8cecc;strokeColor=#b85450;" vertex="1" parent="1">
          <mxGeometry x="1195" y="570" width="110" height="20" as="geometry" />
        </mxCell>
        <mxCell id="kdsYvHtpewpyibcica4u-41" style="rounded=0;orthogonalLoop=1;jettySize=auto;html=1;exitX=0.25;exitY=1;exitDx=0;exitDy=0;entryX=0.25;entryY=0;entryDx=0;entryDy=0;" edge="1" parent="1" source="kdsYvHtpewpyibcica4u-44" target="kdsYvHtpewpyibcica4u-47">
          <mxGeometry relative="1" as="geometry" />
        </mxCell>
        <mxCell id="kdsYvHtpewpyibcica4u-42" style="rounded=0;orthogonalLoop=1;jettySize=auto;html=1;exitX=0.5;exitY=1;exitDx=0;exitDy=0;entryX=0;entryY=0;entryDx=0;entryDy=0;" edge="1" parent="1" source="kdsYvHtpewpyibcica4u-44" target="kdsYvHtpewpyibcica4u-48">
          <mxGeometry relative="1" as="geometry" />
        </mxCell>
        <mxCell id="kdsYvHtpewpyibcica4u-43" style="rounded=0;orthogonalLoop=1;jettySize=auto;html=1;exitX=0.932;exitY=1.033;exitDx=0;exitDy=0;entryX=0;entryY=0.25;entryDx=0;entryDy=0;exitPerimeter=0;" edge="1" parent="1" source="kdsYvHtpewpyibcica4u-44" target="kdsYvHtpewpyibcica4u-49">
          <mxGeometry relative="1" as="geometry" />
        </mxCell>
        <mxCell id="kdsYvHtpewpyibcica4u-44" value="&lt;font face=&quot;Linux Libertine&quot;&gt;SVF::ConstantDataObjVar&lt;/font&gt;" style="rounded=0;whiteSpace=wrap;html=1;" vertex="1" parent="1">
          <mxGeometry x="1110" y="630" width="130" height="20" as="geometry" />
        </mxCell>
        <mxCell id="kdsYvHtpewpyibcica4u-45" value="&lt;font face=&quot;Linux Libertine&quot;&gt;SVF::GlobalValueObjVar&lt;/font&gt;" style="rounded=0;whiteSpace=wrap;html=1;" vertex="1" parent="1">
          <mxGeometry x="1290" y="630" width="120" height="20" as="geometry" />
        </mxCell>
        <mxCell id="kdsYvHtpewpyibcica4u-47" value="&lt;font face=&quot;Linux Libertine&quot;&gt;SVF::ConstantFPObjVar&lt;/font&gt;" style="rounded=0;whiteSpace=wrap;html=1;" vertex="1" parent="1">
          <mxGeometry x="1090" y="680" width="120" height="20" as="geometry" />
        </mxCell>
        <mxCell id="kdsYvHtpewpyibcica4u-48" value="&lt;font face=&quot;Linux Libertine&quot;&gt;SVF::ConstantIntObjVar&lt;/font&gt;" style="rounded=0;whiteSpace=wrap;html=1;" vertex="1" parent="1">
          <mxGeometry x="1225" y="680" width="120" height="20" as="geometry" />
        </mxCell>
        <mxCell id="kdsYvHtpewpyibcica4u-49" value="&lt;font face=&quot;Linux Libertine&quot;&gt;SVF::ConstantNullPtrObjVar&lt;/font&gt;" style="rounded=0;whiteSpace=wrap;html=1;" vertex="1" parent="1">
          <mxGeometry x="1375" y="680" width="150" height="20" as="geometry" />
        </mxCell>
        <mxCell id="kdsYvHtpewpyibcica4u-61" style="rounded=0;orthogonalLoop=1;jettySize=auto;html=1;exitX=0.5;exitY=1;exitDx=0;exitDy=0;entryX=0.5;entryY=0;entryDx=0;entryDy=0;" edge="1" parent="1" source="kdsYvHtpewpyibcica4u-50" target="kdsYvHtpewpyibcica4u-36">
          <mxGeometry relative="1" as="geometry" />
        </mxCell>
        <mxCell id="kdsYvHtpewpyibcica4u-62" style="rounded=0;orthogonalLoop=1;jettySize=auto;html=1;exitX=0.75;exitY=1;exitDx=0;exitDy=0;entryX=0.5;entryY=0;entryDx=0;entryDy=0;" edge="1" parent="1" source="kdsYvHtpewpyibcica4u-50" target="kdsYvHtpewpyibcica4u-39">
          <mxGeometry relative="1" as="geometry" />
        </mxCell>
        <mxCell id="kdsYvHtpewpyibcica4u-50" value="&lt;font face=&quot;Linux Libertine&quot;&gt;SVF::FIObjVar&lt;/font&gt;" style="rounded=0;whiteSpace=wrap;html=1;" vertex="1" parent="1">
          <mxGeometry x="1135" y="499" width="90" height="20" as="geometry" />
        </mxCell>
        <mxCell id="kdsYvHtpewpyibcica4u-53" value="&lt;font face=&quot;Linux Libertine&quot;&gt;SVF::DummyObjVar&lt;/font&gt;" style="rounded=0;whiteSpace=wrap;html=1;" vertex="1" parent="1">
          <mxGeometry x="899" y="499" width="110" height="20" as="geometry" />
        </mxCell>
        <mxCell id="kdsYvHtpewpyibcica4u-54" value="&lt;font face=&quot;Linux Libertine&quot;&gt;SVF::ArgValVar&lt;/font&gt;" style="rounded=0;whiteSpace=wrap;html=1;fillColor=#f8cecc;strokeColor=#b85450;" vertex="1" parent="1">
          <mxGeometry x="800" y="500" width="90" height="20" as="geometry" />
        </mxCell>
        <mxCell id="kdsYvHtpewpyibcica4u-55" style="rounded=0;orthogonalLoop=1;jettySize=auto;html=1;exitX=1;exitY=0.75;exitDx=0;exitDy=0;entryX=0;entryY=0;entryDx=0;entryDy=0;" edge="1" parent="1" source="kdsYvHtpewpyibcica4u-3" target="kdsYvHtpewpyibcica4u-54">
          <mxGeometry relative="1" as="geometry">
            <mxPoint x="500" y="470" as="sourcePoint" />
            <mxPoint x="710" y="510" as="targetPoint" />
          </mxGeometry>
        </mxCell>
        <mxCell id="kdsYvHtpewpyibcica4u-56" value="&lt;font face=&quot;Linux Libertine&quot;&gt;SVF::GepObjVar&lt;/font&gt;" style="rounded=0;whiteSpace=wrap;html=1;" vertex="1" parent="1">
          <mxGeometry x="1369" y="499" width="90" height="20" as="geometry" />
        </mxCell>
        <mxCell id="kdsYvHtpewpyibcica4u-57" style="rounded=0;orthogonalLoop=1;jettySize=auto;html=1;exitX=0.75;exitY=1;exitDx=0;exitDy=0;entryX=0.189;entryY=-0.025;entryDx=0;entryDy=0;entryPerimeter=0;" edge="1" parent="1" source="kdsYvHtpewpyibcica4u-35" target="kdsYvHtpewpyibcica4u-56">
          <mxGeometry relative="1" as="geometry" />
        </mxCell>
      </root>
    </mxGraphModel>
  </diagram>
</mxfile>
